# xmcd
#
# Track frame offsets:
#	150
#	17593
#	35286
#	54393
#
# Disc length: 934 seconds
#
# Revision: 0
# Processed by: cddbd v1.4PL0 Copyright (c) Steve Scherf et al.
# Submitted via: dBpowerAMP V4.0
#
DISCID=2403a404
DTITLE=Mike McClure Band - Ep 2
DYEAR=2003
DGENRE=Country
TTITLE0=Don't you say anything
TTITLE1=Witches
TTITLE2=Sweet Mother Mary
TTITLE3=Out in the fields
EXTD=
EXTT0=
EXTT1=
EXTT2=
EXTT3=
PLAYORDER=
